# xmcd
#
# Track frame offsets: 
#        150
#        17275
#        57495
#        69984
#        82561
#        102377
#        115750
#        133280
#        152606
#        160272
#        182483
#        190201
#        199221
#
# Disc length: 2974 seconds
#
# Revision: 0
# Processed by: cddbd v1.5.2PL0 Copyright (c) Steve Scherf et al.
# Submitted via: ExactAudioCopy v0.95b3
#
DISCID=a10b9c0d
DTITLE=David Crosby  - More Buried Treasure [CD5] - '71-'99  FLAC
DYEAR=1900
DGENRE=
TTITLE0=Urge For Going
TTITLE1=The Wall Song
TTITLE2=King Of The Mountain
TTITLE3=Little Blind Fish
TTITLE4=Homeward Through The Haze
TTITLE5=Taken at All
TTITLE6=Drive My Car
TTITLE7=Might As Well Have A Good Time
TTITLE8=Samurai
TTITLE9=Melody
TTITLE10=Samurai [vocal overdub]
TTITLE11=I'm flying
TTITLE12=Climber
EXTD=
EXTT0=
EXTT1=
EXTT2=
EXTT3=
EXTT4=
EXTT5=
EXTT6=
EXTT7=
EXTT8=
EXTT9=
EXTT10=
EXTT11=
EXTT12=
PLAYORDER=
